<svg width="75" height="93" viewBox="0 0 75 93" fill="none" xmlns="http://www.w3.org/2000/svg">
<path d="M34.5001 4.99231C29.1968 4.99452 23.981 6.14834 19.3419 8.34556C14.7027 10.5428 10.7922 13.7114 7.97686 17.5544C5.16155 21.3973 3.53374 25.7887 3.24606 30.3167C2.95839 34.8447 4.02027 39.361 6.33214 43.4422C6.57166 43.2168 6.86572 43.0387 7.19387 42.9204C7.52201 42.802 7.87637 42.7462 8.23229 42.7568C8.69685 42.7399 9.15719 42.8385 9.55756 43.0406C9.95793 43.2428 10.2811 43.54 10.4881 43.896H59.4993C59.7361 43.6202 60.0491 43.3988 60.4102 43.2515C60.7714 43.1042 61.1696 43.0356 61.5693 43.0518C61.9884 43.0462 62.4031 43.1255 62.7794 43.2833C65.0532 39.2013 66.081 34.6934 65.7672 30.18C65.4534 25.6666 63.8081 21.2947 60.9847 17.4718C58.1614 13.6489 54.2519 10.4995 49.6208 8.31736C44.9897 6.13521 39.7878 4.99131 34.5001 4.99231Z" fill="#569CD6"/>
<path d="M42.7058 26.6635H26.2095V52.451H42.7058V26.6635Z" fill="#FCD3BE"/>
<path d="M43.7194 33.158L42.7057 32.0052C39.1707 37.7373 29.8929 38.0232 26.2093 31.9553L25.1956 33.158L25.031 33.217L23.6033 33.7616V37.9189H23.6351C24.012 42.2985 27.1223 50.8852 29.6434 57.0621H40.487C42.7587 51.9609 43.5124 46.4602 45.1366 41.1775V33.6936L43.884 33.2397L43.7194 33.158Z" fill="#253E4C"/>
<path d="M62.8855 43.1154C60.3715 47.7286 56.3721 51.6337 51.3558 54.3731C46.3394 57.1125 40.514 58.5727 34.5619 58.5827C28.6099 58.5927 22.7777 57.152 17.7488 54.4295C12.72 51.707 8.7026 47.8154 6.16748 43.2107C6.58659 42.3911 7.12132 41.6184 7.75979 40.9097C9.11718 39.3761 10.9142 38.1678 12.9773 37.4015L24.1234 33.1081C24.1234 33.217 24.2242 33.9432 24.2402 34.0476C24.3039 34.5604 23.4016 34.9553 23.6192 35.4363C24.272 36.9113 25.4609 38.3001 26.2253 39.7615C26.5479 40.3364 26.7731 40.9476 26.894 41.5769C27.2762 43.8007 33.8789 51.6795 34.3885 51.6976C34.3885 51.6976 41.6122 44.0367 41.7449 40.6782C41.8468 39.6722 42.1786 38.6931 42.7216 37.7963C43.5071 36.3077 44.4359 34.8463 44.1228 33.3123H44.1706C44.1706 33.1989 44.1334 33.0945 44.1069 32.981L44.4253 33.0491L44.5846 33.1308L45.1153 33.335L56.3623 37.5195C59.2962 38.5996 61.6319 40.6032 62.8855 43.1154Z" fill="#253E4C"/>
<path d="M47.5782 38.6768L46.6016 35.4C46.4291 34.8293 46.124 34.2941 45.7046 33.8262C45.2851 33.3584 44.7598 32.9675 44.16 32.6769L42.7057 31.9962C42.7057 31.9962 44.436 34.0067 34.4576 49.3603C23.9643 34.3607 26.2094 31.9553 26.2094 31.9553L24.6171 32.7859C23.4785 33.3763 22.6555 34.3244 22.3242 35.4272L21.3369 38.6768C21.3283 38.823 21.3575 38.969 21.4224 39.1044C21.4874 39.2399 21.5866 39.3614 21.7128 39.4602C21.8391 39.5591 21.9894 39.6329 22.1528 39.6763C22.3163 39.7198 22.489 39.7318 22.6586 39.7116L23.4069 39.5799C23.5541 39.5532 23.7065 39.5553 23.8526 39.586C23.9987 39.6168 24.1348 39.6754 24.2507 39.7574C24.3665 39.8395 24.4592 39.9429 24.5218 40.0599C24.5843 40.1769 24.6151 40.3045 24.6118 40.4332C24.5196 41.0862 24.2951 41.7204 23.9483 42.3076C23.8718 42.5406 23.872 42.7872 23.9487 43.0202C24.0255 43.2532 24.176 43.4636 24.3836 43.6282C26.3103 45.2303 34.2718 51.8746 34.4682 52.0335C34.6593 51.8746 42.6208 45.2258 44.5528 43.6282C44.7604 43.4636 44.9108 43.2532 44.9876 43.0202C45.0644 42.7872 45.0645 42.5406 44.988 42.3076C44.6413 41.7204 44.4168 41.0862 44.3246 40.4332C44.3213 40.3045 44.3521 40.1769 44.4146 40.0599C44.4771 39.9429 44.5698 39.8395 44.6857 39.7574C44.8016 39.6754 44.9377 39.6168 45.0838 39.586C45.2299 39.5553 45.3822 39.5532 45.5294 39.5799L46.2778 39.7116C46.4473 39.7318 46.62 39.7198 46.7835 39.6763C46.947 39.6329 47.0972 39.5591 47.2235 39.4602C47.3498 39.3614 47.4489 39.2399 47.5139 39.1044C47.5789 38.969 47.6081 38.823 47.5994 38.6768H47.5782Z" fill="#305166"/>
<path d="M46.4794 16.0253C45.4178 15.9028 44.2767 17.3188 43.9901 19.2022C43.7034 21.0857 44.3563 22.6878 45.4497 22.833C46.5431 22.9782 47.6524 21.535 47.939 19.6561C48.2256 17.7771 47.5727 16.1433 46.4794 16.0253ZM22.5364 16.0253C23.5979 15.9028 24.7391 17.3188 25.0257 19.2022C25.3123 21.0857 24.6594 22.6878 23.5661 22.833C22.4727 22.9782 21.3634 21.535 21.0767 19.6561C20.7901 17.7771 21.443 16.1433 22.5364 16.0253Z" fill="#F4BEAE"/>
<path d="M45.5665 16.8831L44.3563 8.71384L34.5 5.96353L24.6595 8.72745L23.444 16.8967C23.444 16.8967 22.9133 22.7558 24.6595 26.8813C25.599 29.1505 27.6955 30.9659 29.4046 32.1595C30.8464 33.1632 32.6487 33.7111 34.5079 33.7111C36.3671 33.7111 38.1694 33.1632 39.6113 32.1595C41.3203 30.9659 43.4116 29.1369 44.3563 26.8813C46.0866 22.7422 45.5665 16.8831 45.5665 16.8831Z" fill="#E8C79C"/>
<path d="M45.5665 16.8831L44.3563 8.71384L34.5 5.96353L24.6595 8.72745L23.444 16.8967C23.444 16.8967 22.9133 22.7558 24.6595 26.8813C25.599 29.1505 27.6955 30.9659 29.4046 32.1595C30.8464 33.1632 32.6487 33.7111 34.5079 33.7111C36.3671 33.7111 38.1694 33.1632 39.6113 32.1595C41.3203 30.9659 43.4116 29.1369 44.3563 26.8813C46.0866 22.7422 45.5665 16.8831 45.5665 16.8831Z" fill="#FCD3BE"/>
<path opacity="0.5" d="M44.3564 26.8722C43.4169 29.1415 41.3151 30.9568 39.6166 32.1459C38.1731 33.1503 36.369 33.6986 34.508 33.6986C32.647 33.6986 30.8428 33.1503 29.3993 32.1459C28.0069 31.1935 26.7917 30.0656 25.7954 28.8011C26.5533 29.5659 27.3939 30.268 28.306 30.8978C29.749 31.8991 31.5509 32.4455 33.4093 32.4455C35.2677 32.4455 37.0695 31.8991 38.5126 30.8978C40.2217 29.6997 42.313 27.8661 43.2577 25.6151C44.988 21.4896 44.4679 15.6305 44.4679 15.6305L43.4063 8.45969L44.3564 8.72746L45.5719 16.8967C45.5719 16.8967 46.0867 22.7422 44.3564 26.8722Z" fill="#F4BEAE"/>
<path d="M46.437 17.5321C45.9062 17.6909 45.3755 19.1977 45.3755 19.1977H44.2609C44.541 17.7016 44.1811 16.1692 43.2471 14.8816C43.3588 14.7359 43.4599 14.5843 43.5496 14.4278C44.0989 13.5258 44.3239 12.5051 44.1964 11.494C44.0689 10.483 43.5946 9.52675 42.8331 8.74562C42.8331 8.74562 42.8331 8.6957 42.7694 8.61401C42.5412 8.07847 41.8724 6.14962 44.6324 7.25247C45.6939 7.66547 46.2247 8.90447 46.506 10.3931C46.6285 11.1376 46.6959 11.8879 46.7077 12.6396C46.7524 14.2739 46.662 15.9088 46.437 17.5321ZM26.2466 8.62309C26.2294 8.66832 26.2081 8.71232 26.1829 8.7547C25.4242 9.53635 24.9524 10.4922 24.8268 11.5023C24.7012 12.5124 24.9274 13.5317 25.4769 14.4323C25.5669 14.5878 25.6661 14.7393 25.7742 14.8862C24.8474 16.1762 24.4898 17.7068 24.7657 19.2022H23.6405C23.6405 19.2022 23.1097 17.6955 22.5789 17.5366C22.35 15.912 22.2542 14.2757 22.2923 12.6396C22.3097 11.8891 22.3823 11.1403 22.5099 10.3976C22.7912 8.90901 23.3432 7.67455 24.3836 7.25701C27.1542 6.14962 26.4748 8.07847 26.2466 8.62309Z" fill="#424C54"/>
<path d="M41.6547 2.12854C37.9393 0.313152 31.0817 0.313152 27.3611 2.12854C24.1764 3.66708 22.0162 7.75169 21.4695 13.7606C21.4432 14.047 21.5349 14.3322 21.7288 14.5668C21.9227 14.8015 22.2065 14.9706 22.5311 15.045C28.4544 16.3022 40.1738 16.107 46.4157 14.9996C46.753 14.9358 47.0519 14.7696 47.2569 14.5318C47.4618 14.2939 47.559 14.0006 47.5303 13.7062C46.9889 7.71538 44.834 3.66254 41.6547 2.12854Z" fill="#305166"/>
<path d="M30.4025 2.12854C28.5767 3.66254 27.3347 7.75169 27.0215 13.7606C26.9806 14.0027 27.0166 14.2497 27.1259 14.4757C27.2352 14.7017 27.4136 14.8983 27.6425 15.045C29.5128 15.6285 31.4902 15.9205 33.481 15.9073C30.9492 15.8755 28.5024 15.6032 26.8092 15.045C26.5594 14.912 26.3602 14.7198 26.2358 14.4918C26.1114 14.2638 26.0672 14.0097 26.1086 13.7606C26.4589 7.75169 27.8548 3.66254 29.9036 2.12854C31.1091 1.27186 32.6197 0.791667 34.1869 0.766998C32.7726 0.807867 31.4255 1.29254 30.4025 2.12854ZM42.9021 13.7107C42.934 14.3143 42.6261 14.8725 42.1803 14.9951C39.8636 15.5667 37.4683 15.8719 35.0574 15.9028C37.1964 15.8664 39.3176 15.5606 41.3523 14.9951C41.7504 14.8725 42.0317 14.3143 41.9945 13.7107C41.6707 7.71538 40.434 3.66254 38.6135 2.12854C37.5908 1.29218 36.2435 0.807444 34.8291 0.766998C36.3945 0.792692 37.9031 1.27283 39.1071 2.12854C41.1506 3.66254 42.5359 7.71538 42.9021 13.7107Z" fill="#253E4C"/>
<path d="M46.8934 14.2871C38.7922 12.3589 30.229 12.3589 22.1277 14.2871C21.8464 14.3551 21.7774 14.4595 21.857 14.6955C22.1702 15.6032 22.3878 16.6834 22.701 17.6001C22.8013 17.8892 23.0269 18.1347 23.3317 18.2865C23.6364 18.4383 23.9974 18.485 24.341 18.4171C31.0112 16.9556 38.0046 16.9556 44.6748 18.4171C45.0192 18.4863 45.3815 18.4402 45.6874 18.2883C45.9934 18.1364 46.2198 17.8902 46.3202 17.6001C46.628 16.6925 46.9093 15.4398 47.2225 14.5231C47.3021 14.2825 47.1747 14.3551 46.8934 14.2871Z" fill="#305166"/>
<path d="M46.8934 13.8695C38.7922 11.9413 30.229 11.9413 22.1277 13.8695C21.994 13.9024 21.8807 13.9788 21.8122 14.0823C21.7437 14.1859 21.7255 14.3083 21.7615 14.4232L22.6956 17.1826C22.7971 17.4711 23.0229 17.7159 23.3273 17.8675C23.6318 18.0192 23.9922 18.0663 24.3357 17.9995C31.0059 16.5381 37.9993 16.5381 44.6695 17.9995C45.0137 18.0665 45.3749 18.0195 45.6802 17.8679C45.9855 17.7163 46.2123 17.4714 46.3149 17.1826C46.6227 16.2749 46.9359 15.3672 47.249 14.4232C47.2855 14.3095 47.2687 14.1881 47.2024 14.0848C47.136 13.9814 47.0252 13.9042 46.8934 13.8695Z" fill="#253E4C"/>
<path opacity="0.1" d="M45.2004 7.77439C44.732 6.73332 44.1713 5.72436 43.5231 4.75632C43.0295 4.03924 42.382 3.27678 41.4001 3.17693C40.6954 3.1599 39.9974 3.2974 39.3725 3.57632C36.9194 4.35755 34.2113 4.31539 31.7931 3.45832C30.8749 3.13155 29.9726 2.6777 28.9801 2.68678C28.1298 2.72372 27.3243 3.02375 26.7137 3.53093C26.1106 4.03401 25.6053 4.61621 25.2169 5.25555C24.6012 6.19955 23.8847 7.26155 23.7254 8.37347C23.6087 9.1314 23.0567 10.679 24.4154 10.8923C24.7107 10.9158 25.0083 10.8817 25.2859 10.7925C28.7386 9.95524 32.3955 9.95524 35.8482 10.7925C37.9713 11.3053 40.0147 12.154 42.2174 12.1086C43.4807 12.1086 44.8713 11.6911 45.4392 10.7471C46.0071 9.80309 45.6462 8.72293 45.2004 7.77439Z" fill="#D9E2E9"/>
<path d="M34.7177 0.453857C33.6562 0.453857 32.7485 0.676242 32.7485 0.94855C32.7485 1.22086 33.6296 1.44324 34.7177 1.44324C35.8058 1.44324 36.6868 1.22086 36.6868 0.94855C36.6868 0.676242 35.8058 0.453857 34.7177 0.453857Z" fill="#253E4C"/>
<path d="M37.0531 4.19809L34.5373 3.71701L32.0214 4.19809C32.0224 4.36731 31.9555 4.53171 31.8319 4.66386C31.7082 4.796 31.5353 4.88791 31.342 4.92424V6.58986C31.342 9.1087 34.0649 10.0527 34.5267 10.1162C34.999 10.0527 37.7113 9.1087 37.7113 6.58986V4.92424C37.5219 4.88435 37.3539 4.79092 37.2344 4.65911C37.1149 4.5273 37.051 4.36484 37.0531 4.19809Z" fill="#E55E5E"/>
<path d="M37.8174 4.59294C37.7125 4.57313 37.6189 4.52305 37.5522 4.45114C37.4855 4.37923 37.4498 4.28987 37.4511 4.19809C37.4519 4.12785 37.4258 4.05932 37.3768 4.00294C37.3201 3.93341 37.2348 3.88477 37.138 3.86678L34.6221 3.38571C34.5642 3.37668 34.5049 3.37668 34.447 3.38571L32.722 3.71701L31.9364 3.86678C31.8479 3.88331 31.7687 3.92514 31.7117 3.98537C31.6548 4.04561 31.6236 4.12064 31.6233 4.19809C31.6233 4.29028 31.5865 4.37971 31.5189 4.45154C31.4513 4.52336 31.3571 4.57326 31.2517 4.59294C31.1642 4.61035 31.0862 4.65257 31.0303 4.71272C30.9744 4.77287 30.9439 4.84742 30.9439 4.92425V6.58986C30.9357 6.7123 30.9357 6.83504 30.9439 6.95748C31.2093 9.44001 33.9693 10.384 34.5 10.4385H34.6274C35.1582 10.3704 37.8757 9.43094 38.1358 6.96201C38.144 6.83352 38.144 6.70474 38.1358 6.57625V4.92425C38.1343 4.84639 38.1019 4.77128 38.0441 4.71113C37.9863 4.65097 37.9064 4.60932 37.8174 4.59294ZM37.3343 5.16025V6.58986C37.3343 6.64432 37.3343 6.69878 37.3343 6.75325C37.2229 8.81371 35.052 9.65332 34.5425 9.76678C33.7749 9.56105 33.0978 9.16205 32.5997 8.62196C32.1016 8.08188 31.8057 7.42584 31.7507 6.73963C31.7507 6.68971 31.7507 6.63978 31.7507 6.58986V5.16025C31.7998 5.13883 31.846 5.11296 31.8887 5.08309C32.1319 4.93936 32.3055 4.72476 32.377 4.47948L34.5372 4.08463L36.6974 4.49763C36.78 4.75081 36.969 4.96899 37.2282 5.11032C37.2618 5.12963 37.2973 5.14634 37.3343 5.16025Z" fill="#424C54"/>
<path d="M53.114 46.5919L49.9294 45.9837L46.7448 46.5919C46.7421 46.8046 46.655 47.0102 46.4978 47.1751C46.3407 47.3399 46.1227 47.4543 45.8796 47.4996V49.6054C45.8796 52.7823 49.3296 53.9895 49.9294 54.0712C50.5239 53.9895 53.9739 52.7959 53.9739 49.6054V47.4996C53.7318 47.4535 53.515 47.3387 53.3589 47.1739C53.2028 47.0091 53.1165 46.8039 53.114 46.5919Z" fill="#E55E5E"/>
<path d="M54.0959 47.0684C53.9729 47.0456 53.862 46.9888 53.7805 46.9068C53.6989 46.8248 53.6512 46.7221 53.6448 46.6145C53.6478 46.5096 53.6081 46.4071 53.5327 46.3243C53.4572 46.2416 53.3505 46.1838 53.2308 46.1607L50.0461 45.5525C49.971 45.5384 49.8931 45.5384 49.8179 45.5525L46.6333 46.1607C46.5136 46.1838 46.4069 46.2416 46.3314 46.3243C46.2559 46.4071 46.2163 46.5096 46.2193 46.6145C46.2131 46.7214 46.1662 46.8237 46.0857 46.9056C46.0052 46.9876 45.8955 47.0447 45.7734 47.0684C45.6527 47.0905 45.5448 47.148 45.4683 47.2308C45.3918 47.3136 45.3514 47.4167 45.3541 47.5222V49.6281C45.3541 53.1409 49.1544 54.4479 49.8498 54.5432H50.0143C50.7149 54.4479 54.5099 53.1409 54.5099 49.6281V47.5222C54.5129 47.4173 54.4733 47.3148 54.3978 47.232C54.3223 47.1493 54.2156 47.0914 54.0959 47.0684ZM49.9347 53.6174C49.2606 53.4631 46.4157 52.3557 46.4157 49.6145V47.8218C46.6155 47.7362 46.7921 47.6156 46.9338 47.4678C47.0756 47.32 47.1793 47.1483 47.2384 46.964L49.9506 46.4466L52.6575 46.964C52.7165 47.1464 52.8185 47.3166 52.9573 47.4642C53.096 47.6117 53.2686 47.7334 53.4643 47.8218V49.6145C53.4484 52.3557 50.6088 53.4631 49.9347 53.6174Z" fill="#305166"/>
<path d="M49.4352 35.9116L48.5998 37.5953C48.5025 37.7914 48.6095 38.0179 48.8389 38.1011L55.5866 40.5491C55.816 40.6323 56.0808 40.5407 56.1782 40.3446L57.0136 38.6609C57.1109 38.4647 57.0039 38.2383 56.7745 38.1551L50.0267 35.7071C49.7974 35.6239 49.5325 35.7154 49.4352 35.9116Z" fill="#9297AB"/>
<path d="M55.1258 38.2501C54.9746 38.2501 54.8268 38.2885 54.7012 38.3603C54.5755 38.4321 54.4775 38.5342 54.4196 38.6536C54.3618 38.773 54.3467 38.9044 54.3762 39.0312C54.4056 39.158 54.4784 39.2744 54.5853 39.3658C54.6922 39.4572 54.8284 39.5194 54.9767 39.5447C55.1249 39.5699 55.2786 39.5569 55.4183 39.5075C55.5579 39.458 55.6773 39.3742 55.7613 39.2668C55.8453 39.1593 55.8901 39.0329 55.8901 38.9037C55.8908 38.8177 55.8715 38.7324 55.8333 38.6529C55.7952 38.5733 55.7389 38.501 55.6678 38.4402C55.5967 38.3794 55.5121 38.3313 55.4191 38.2987C55.3261 38.266 55.2263 38.2495 55.1258 38.2501ZM50.5187 36.6617C50.3675 36.6617 50.2198 36.7 50.0941 36.7718C49.9684 36.8436 49.8704 36.9457 49.8126 37.0651C49.7547 37.1845 49.7396 37.3159 49.7691 37.4427C49.7986 37.5695 49.8714 37.6859 49.9783 37.7773C50.0851 37.8687 50.2213 37.931 50.3696 37.9562C50.5179 37.9814 50.6715 37.9685 50.8112 37.919C50.9508 37.8695 51.0702 37.7858 51.1542 37.6783C51.2382 37.5708 51.283 37.4445 51.283 37.3152C51.2816 37.1423 51.2006 36.9767 51.0576 36.8544C50.9146 36.7321 50.721 36.6629 50.5187 36.6617Z" fill="#84879C"/>
<path d="M19.3943 35.709L12.6465 38.1569C12.4171 38.2402 12.3101 38.4666 12.4074 38.6627L13.2428 40.3465C13.3402 40.5426 13.605 40.6341 13.8344 40.5509L20.5821 38.103C20.8115 38.0198 20.9185 37.7933 20.8212 37.5972L19.9858 35.9135C19.8885 35.7173 19.6236 35.6258 19.3943 35.709Z" fill="#9297AB"/>
<path d="M14.299 38.2501C14.4501 38.2501 14.5979 38.2885 14.7236 38.3603C14.8493 38.4321 14.9473 38.5342 15.0051 38.6536C15.063 38.773 15.0781 38.9044 15.0486 39.0312C15.0191 39.158 14.9463 39.2744 14.8394 39.3658C14.7325 39.4572 14.5963 39.5194 14.4481 39.5447C14.2998 39.5699 14.1461 39.5569 14.0065 39.5075C13.8668 39.458 13.7475 39.3742 13.6635 39.2668C13.5795 39.1593 13.5347 39.0329 13.5347 38.9037C13.5347 38.7304 13.6152 38.5641 13.7585 38.4416C13.9019 38.319 14.0963 38.2501 14.299 38.2501ZM18.9061 36.6617C19.0572 36.6617 19.205 36.7 19.3307 36.7718C19.4564 36.8436 19.5543 36.9457 19.6122 37.0651C19.67 37.1845 19.6852 37.3159 19.6557 37.4427C19.6262 37.5695 19.5534 37.6859 19.4465 37.7773C19.3396 37.8687 19.2034 37.931 19.0552 37.9562C18.9069 37.9814 18.7532 37.9685 18.6136 37.919C18.4739 37.8695 18.3545 37.7858 18.2706 37.6783C18.1866 37.5708 18.1417 37.4445 18.1417 37.3152C18.1431 37.1423 18.2241 36.9767 18.3671 36.8544C18.5102 36.7321 18.7038 36.6629 18.9061 36.6617Z" fill="#84879C"/>
</svg>
