<svg width="34" height="39" viewBox="0 0 34 39" fill="none" xmlns="http://www.w3.org/2000/svg">
<path d="M17.1345 23.8139C15.2596 23.8139 13.7339 22.1253 13.7339 20.0496C13.7339 17.9822 15.259 16.3003 17.1345 16.3003C18.9944 16.3003 20.5084 17.9822 20.5084 20.0496C20.5084 22.1253 18.9944 23.8139 17.1345 23.8139Z" fill="#2A2238"/>
<path fill-rule="evenodd" clip-rule="evenodd" d="M5.66667 0C2.53727 0 0 2.91009 0 6.5V32.5C0 36.0899 2.53727 39 5.66667 39H28.3333C31.4627 39 34 36.0899 34 32.5V6.5C34 2.91009 31.4627 0 28.3333 0H5.66667ZM6.86254 17.3464C6.86254 18.1863 7.5028 18.5019 8.86136 18.9764C10.2797 19.4714 12.0444 20.0877 12.0361 22.4839C12.0361 24.4651 10.5508 25.7986 8.34063 25.7986C7.08997 25.7986 5.76407 25.2409 4.79398 24.3069C4.53554 24.0578 4.45918 23.6375 4.61025 23.2912L4.7486 22.9748C4.84711 22.7488 5.02917 22.5862 5.24388 22.5316C5.4586 22.4773 5.68327 22.5367 5.85537 22.6938C6.59359 23.3671 7.50446 23.7535 8.3539 23.7535C8.77448 23.7535 10.148 23.6661 10.148 22.5434C10.1519 21.7052 9.55475 21.3668 8.12591 20.8798C6.72141 20.4012 4.97383 19.8055 4.97383 17.452C4.97383 15.5667 6.40101 14.3 8.5249 14.3C8.80658 14.3 9.09268 14.3259 9.37766 14.3754C9.54977 14.4054 9.72132 14.444 9.89121 14.4911C10.4047 14.6332 10.9006 14.8513 11.3395 15.1333C11.4047 15.1753 11.4623 15.2273 11.5115 15.2867C11.5619 15.347 11.6028 15.415 11.6343 15.4878C11.7301 15.7069 11.7412 15.971 11.6472 16.2092L11.501 16.5781C11.4174 16.7895 11.2614 16.9517 11.0694 17.0258C10.9609 17.0677 10.8464 17.0795 10.7357 17.0616C10.6947 17.0551 10.6543 17.0446 10.615 17.0301C10.5719 17.0144 10.5298 16.9941 10.4894 16.969C9.8652 16.5823 9.12533 16.3605 8.45905 16.3605C8.08441 16.3605 6.86254 16.4315 6.86254 17.3464ZM17.1345 14.3151C14.2204 14.3151 11.9376 16.8338 11.9376 20.0494C11.9376 23.2818 14.2204 25.8138 17.1345 25.8138C20.0408 25.8138 22.3175 23.2818 22.3175 20.0494C22.3175 16.8338 20.0408 14.3151 17.1345 14.3151ZM24.2925 17.3464C24.2925 18.1862 24.9328 18.5017 26.2919 18.9764C27.7102 19.4714 29.4749 20.0877 29.4667 22.4839C29.4667 24.4653 27.9814 25.7986 25.7712 25.7986C24.5205 25.7986 23.1946 25.2409 22.2246 24.3069C21.9655 24.0579 21.8898 23.6378 22.0408 23.2912L22.1785 22.9748C22.277 22.7488 22.4592 22.5862 22.6738 22.5316C22.8891 22.4773 23.1138 22.5367 23.2859 22.6938C24.0242 23.3671 24.935 23.7535 25.7845 23.7535C26.205 23.7535 27.5785 23.6661 27.5785 22.5432C27.5824 21.7052 26.9852 21.3671 25.5564 20.8798C24.1519 20.4012 22.4044 19.8056 22.4044 17.452C22.4044 15.5667 23.8315 14.3 25.9555 14.3C26.9205 14.3 27.9465 14.6037 28.77 15.1333C29.1004 15.346 29.2342 15.8133 29.0776 16.2092L28.9315 16.5781C28.848 16.7895 28.6919 16.9517 28.4999 17.0258C28.3084 17.0999 28.0982 17.0795 27.92 16.969C27.2958 16.5823 26.5558 16.3605 25.8896 16.3605C25.515 16.3605 24.2925 16.4315 24.2925 17.3464Z" fill="#2A2238"/>
</svg>
