<svg width="20" height="23" viewBox="0 0 20 23" fill="none" xmlns="http://www.w3.org/2000/svg">
<path d="M9.69863 23C10.2703 23 10.8185 22.7797 11.2227 22.3876C11.6269 21.9955 11.8539 21.4636 11.8539 20.9091H7.54333C7.54333 21.4636 7.7704 21.9955 8.1746 22.3876C8.5788 22.7797 9.12701 23 9.69863 23ZM1.07742 18.8182H18.3198C18.5329 18.8181 18.7413 18.7568 18.9184 18.6419C19.0956 18.527 19.2337 18.3638 19.3152 18.1728C19.3968 17.9818 19.4181 17.7716 19.3766 17.5688C19.335 17.3661 19.2324 17.1798 19.0817 17.0336L17.2422 15.249V9.40909C17.2387 7.65116 16.5836 5.95307 15.3966 4.62487C14.2095 3.29667 12.5696 2.42697 10.7763 2.17455V1.04545C10.7763 0.768183 10.6627 0.502267 10.4606 0.306206C10.2585 0.110146 9.98444 0 9.69863 0C9.41282 0 9.13872 0.110146 8.93662 0.306206C8.73452 0.502267 8.62098 0.768183 8.62098 1.04545V2.17455C6.82768 2.42697 5.18778 3.29667 4.0007 4.62487C2.81362 5.95307 2.15854 7.65116 2.15507 9.40909V15.249L0.315522 17.0336C0.164856 17.1798 0.062257 17.3661 0.0206947 17.5688C-0.0208677 17.7716 0.000473036 17.9818 0.0820189 18.1728C0.163565 18.3638 0.301654 18.527 0.478831 18.6419C0.656007 18.7568 0.864316 18.8181 1.07742 18.8182ZM3.99462 16.421C4.19674 16.2249 4.31031 15.9591 4.31037 15.6818V9.40909C4.31037 8.02273 4.87806 6.69315 5.88856 5.71285C6.89905 4.73255 8.26958 4.18182 9.69863 4.18182C11.1277 4.18182 12.4982 4.73255 13.5087 5.71285C14.5192 6.69315 15.0869 8.02273 15.0869 9.40909V15.6818C15.0869 15.9591 15.2005 16.2249 15.4026 16.421L15.7184 16.7273H3.67887L3.99462 16.421Z" fill="black"/>
</svg>
